<svg xmlns="http://www.w3.org/2000/svg" width="80.5" height="80.337" viewBox="0 0 80.5 80.337"><defs><style>.a{fill:#fff;stroke:#fff;stroke-width:0.5px;}</style></defs><g transform="translate(0.25 0.25)"><path class="a" d="M12.065,79.837A12.11,12.11,0,0,1,0,67.771V17.665A12.121,12.121,0,0,1,12.065,5.6h5.257V3.4a3.4,3.4,0,1,1,6.792,0V5.6H55.706V3.4a3.4,3.4,0,1,1,6.792,0v2.22h5.437A12.1,12.1,0,0,1,80,17.665V67.951A12.328,12.328,0,0,1,67.771,79.837ZM6.792,17.5V67.771a5.3,5.3,0,0,0,5.273,5.273H67.935a5.3,5.3,0,0,0,5.273-5.273h.016V17.682a5.3,5.3,0,0,0-5.273-5.273H62.514v2.2a3.482,3.482,0,0,1-3.4,3.233,3.414,3.414,0,0,1-3.4-3.4V12.408H24.131V14.6a3.268,3.268,0,0,1-3.4,3.233,3.414,3.414,0,0,1-3.4-3.4v-2.2H12.065A5.3,5.3,0,0,0,6.792,17.5ZM58.939,65.225a3.4,3.4,0,0,1,0-6.792H63.02a3.414,3.414,0,0,1,3.4,3.4,3.649,3.649,0,0,1-3.4,3.4Zm-21.061,0a3.4,3.4,0,0,1,0-6.792h4.082a3.4,3.4,0,1,1,0,6.792Zm-20.9,0a3.4,3.4,0,1,1,0-6.792h4.082a3.414,3.414,0,0,1,3.4,3.4,3.649,3.649,0,0,1-3.4,3.4ZM58.939,50.955a3.4,3.4,0,0,1,0-6.792H63.02a3.414,3.414,0,0,1,3.4,3.4,3.508,3.508,0,0,1-3.4,3.4Zm-21.061,0a3.4,3.4,0,0,1,0-6.792h4.082a3.414,3.414,0,0,1,3.4,3.4,3.3,3.3,0,0,1-3.4,3.4Zm-20.9,0a3.4,3.4,0,1,1,0-6.792h4.082a3.414,3.414,0,0,1,3.4,3.4,3.508,3.508,0,0,1-3.4,3.4Zm41.959-14.09a3.4,3.4,0,0,1,0-6.792H63.02a3.4,3.4,0,0,1,3.4,3.4,3.649,3.649,0,0,1-3.4,3.4Zm-21.061,0a3.4,3.4,0,0,1,0-6.792h4.082a3.4,3.4,0,1,1,0,6.792Zm-20.9,0a3.4,3.4,0,1,1,0-6.792h4.082a3.4,3.4,0,0,1,3.4,3.4,3.649,3.649,0,0,1-3.4,3.4Z"/></g></svg>