<svg xmlns="http://www.w3.org/2000/svg" width="967.299" height="980.173" viewBox="0 0 967.299 980.173"><defs><style>.a{opacity:0.6;}.b,.c{fill:#92278f;}.b{opacity:0.12;}.c{opacity:0.18;}</style></defs><g class="a" transform="translate(880.017 -2955.958) rotate(42)"><path class="b" d="M663.012,220.046S505.574-156.4,234.876,75.462-58.666,447.815,95.529,583.735,517,729.935,517,729.935s318.67,28.555,218.158-335.8C722.069,346.7,663.012,220.046,663.012,220.046Z" transform="matrix(-0.438, -0.899, 0.899, -0.438, 1848.461, 3325.422)"/><path class="c" d="M663.012,220.046S505.574-156.4,234.876,75.462-58.666,447.815,95.529,583.735,517,729.935,517,729.935s318.67,28.555,218.158-335.8C722.069,346.7,663.012,220.046,663.012,220.046Z" transform="translate(2198.965 3316.629) rotate(-155)"/></g></svg>