<svg xmlns="http://www.w3.org/2000/svg" width="992.749" height="998.585" viewBox="0 0 992.749 998.585"><defs><style>.a,.b{fill:#92278f;}.a{opacity:0.12;}.b{opacity:0.18;}</style></defs><g transform="translate(389.079 -1130.837)"><path class="a" d="M663.012,220.046S505.574-156.4,234.876,75.462-58.666,447.815,95.529,583.735,517,729.935,517,729.935s318.67,28.555,218.158-335.8C722.069,346.7,663.012,220.046,663.012,220.046Z" transform="matrix(-0.438, -0.899, 0.899, -0.438, -55.539, 2129.422)"/><path class="b" d="M663.012,220.046S505.574-156.4,234.876,75.462-58.666,447.815,95.529,583.735,517,729.935,517,729.935s318.67,28.555,218.158-335.8C722.069,346.7,663.012,220.046,663.012,220.046Z" transform="translate(294.965 2120.629) rotate(-155)"/></g></svg>